<svg width="54" height="54" viewBox="0 0 54 54" fill="none" xmlns="http://www.w3.org/2000/svg">
<path d="M50.6274 27.5247C50.6274 25.5822 50.4665 24.1647 50.1184 22.6947H27.4845V31.4621H40.7701C40.5024 33.6409 39.0559 36.9222 35.8416 39.1271L35.7965 39.4206L42.953 44.8537L43.4488 44.9022C48.0023 40.7809 50.6274 34.7171 50.6274 27.5247" fill="#4285F4"/>
<path d="M27.483 50.625C33.9919 50.625 39.4561 48.5249 43.4473 44.9025L35.8401 39.1273C33.8044 40.5185 31.0722 41.4898 27.483 41.4898C21.1081 41.4898 15.6975 37.3686 13.7687 31.6723L13.486 31.6958L6.04467 37.3397L5.94736 37.6048C9.91159 45.3223 18.0544 50.625 27.483 50.625Z" fill="#34A853"/>
<path d="M13.7701 31.6725C13.2612 30.2025 12.9667 28.6274 12.9667 26.9999C12.9667 25.3723 13.2612 23.7974 13.7433 22.3274L13.7299 22.0143L6.19526 16.2799L5.94874 16.3948C4.31489 19.5974 3.37738 23.1937 3.37738 26.9999C3.37738 30.8062 4.31489 34.4023 5.94874 37.6048L13.7701 31.6725" fill="#FBBC05"/>
<path d="M27.4832 12.5099C32.0099 12.5099 35.0634 14.4262 36.8046 16.0275L43.6081 9.5175C39.4297 5.71126 33.992 3.375 27.4832 3.375C18.0545 3.375 9.91161 8.67746 5.94736 16.3949L13.742 22.3275C15.6975 16.6312 21.1082 12.5099 27.4832 12.5099" fill="#EB4335"/>
</svg>
